<svg id="svg" fill="#ef4444" stroke="#ef4444" width="200px" height="200px" version="1.1" viewBox="144 144 512 512" xmlns="http://www.w3.org/2000/svg">
    <g id="IconSvg_bgCarrier" stroke-width="0"></g>
    <g id="IconSvg_tracerCarrier" stroke-linecap="round" stroke-linejoin="round" stroke="#CCCCCC"></g>
     <g id="IconSvg_iconCarrier">
      <g xmlns="http://www.w3.org/2000/svg">
  <path d="m550.23 309.31h-300.47c-18.211 0-33.023 14.812-33.023 33.023v149.33c0 18.211 14.812 33.023 33.023 33.023h300.47c18.211 0 33.023-14.812 33.023-33.023v-149.33c0-18.211-14.812-33.023-33.023-33.023zm-300.47 12.594h254.15v39.047h-274.58v-18.617c0-11.266 9.1641-20.43 20.43-20.43zm-20.43 169.76v-118.12h274.58v138.55l-254.15 0.003906c-11.266 0-20.43-9.1641-20.43-20.43zm341.33 0c0 11.266-9.1641 20.43-20.43 20.43h-33.73v-190.19h33.73c11.266 0 20.43 9.1641 20.43 20.43z"></path>
  <path d="m461.71 436.52h-111.93c-3.0547-20.637-20.883-36.527-42.359-36.527-23.617 0-42.824 19.207-42.824 42.824 0 23.617 19.207 42.824 42.824 42.824 21.477 0 39.305-15.891 42.359-36.527l76.039 0.003906v22.672h12.594v-22.672h17.004v28.969h12.594v-41.562zm-154.29 36.527c-16.668 0-30.23-13.559-30.23-30.23 0-16.668 13.559-30.23 30.23-30.23 16.668 0 30.23 13.559 30.23 30.23 0 16.672-13.559 30.23-30.23 30.23z"></path>
  <path d="m528.8 405.14 14.703 14.699-15.246 15.328 8.9297 8.8789 24.102-24.227-23.578-23.586z"></path>
 </g>

      </g>
      </svg>