<?xml version="1.0" encoding="utf-8"?>
<!-- Generator: Adobe Illustrator 24.3.0, SVG Export Plug-In . SVG Version: 6.00 Build 0)  -->
<svg version="1.1" id="Слой_1" xmlns="http://www.w3.org/2000/svg" xmlns:xlink="http://www.w3.org/1999/xlink" x="0px" y="0px"
	 viewBox="0 0 20 20" style="enable-background:new 0 0 20 20;" xml:space="preserve">
<g transform="translate(0.000000,2700.000000) scale(0.100000,-0.100000)">
	<path d="M160.1,27000c-3.5-0.2-7.5-1-11.7-2.4c-4.9-1.6-9.3-3.7-13.7-6.4c-10.2-6.3-19.5-16.6-26.1-28.7c-0.6-1-2.3-4.5-2.6-5.2
		c-2.9-6.4-4.8-11.9-6.3-18c-1.2-5-2.8-14.3-3.1-18.2c-0.1-1-0.2-1.2-0.4-1.2c-0.2,0-2.1,0.5-4.8,1.4c-2.9,0.9-7.1,2.1-7.5,2.2
		c-0.3,0-0.3,0-0.3-0.1c0-0.2,0.9-2.1,1.8-3.6c0.3-0.6,1-1.8,1.4-2.6c0.4-0.8,1.5-2.8,2.5-4.4c0.9-1.6,2.1-3.8,2.7-4.9
		s1.7-3.1,2.5-4.5c2.2-3.9,5.4-9.7,6.6-11.9l1.1-2l0.2,0.2c0.1,0.1,0.7,0.8,1.2,1.5c0.6,0.7,1.9,2.4,2.9,3.7c1.6,2.1,5,6.5,6.1,7.9
		c0.2,0.3,1,1.3,1.8,2.3c1.6,2.1,3.8,4.9,4.2,5.4c2.4,3.1,4.1,5.2,4.6,5.8c1.2,1.5,1.6,2.1,1.5,2.3c0,0.1-0.2,0.1-0.3,0.1
		c-0.2,0-2.1-0.1-3.8-0.2c-0.2,0-0.9-0.1-1.5-0.1c-0.6,0-2.1-0.2-3.3-0.3c-1.3-0.1-2.6-0.2-3.1-0.2l-0.9,0v1.7
		c0,4.2,0.5,9.2,1.3,13.7c2,10.8,5.8,21.4,10.9,30.1c3.4,5.8,6.9,10.4,11.4,14.9c2.3,2.3,3.8,3.7,6.2,5.5c5.6,4.3,12,7.5,18.4,9.2
		c6.2,1.6,13.4,2.1,19.9,1.3c3.4-0.4,5.1-0.7,8.1-1.6c3.1-0.8,4.8-1.5,8.9-3.5c1.7-0.8,3-1.5,3.1-1.5c0.3,0-0.7,0.9-2.3,1.9
		c-2.6,1.7-6.3,3.8-9.1,5.1c-3.1,1.4-7.1,2.8-10.9,3.6c-3.7,0.9-5.1,1.1-8.9,1.2C167.4,27000,161.1,27000,160.1,27000z"/>
	<path d="M7.2,26960.9c-2-0.1-3-0.4-4-1.1c-2.2-1.6-3.3-3.8-3.3-6.4c0-2,0.5-3.5,1.8-5.2c0.9-1.1,1.6-1.7,2.5-1.9
		c1.2-0.3,3.4-0.4,11.1-0.6c2.5,0,4.9-0.1,5.3-0.1c0.4,0,1-0.1,1.5-0.1c1.1-0.1,2-0.2,2.5-0.4c0.7-0.3,1.6-0.9,1.9-1.3
		c1.1-1.2,2.1-4.2,4.4-13.5c1.2-5,1.5-5.9,3.6-14.8c0.7-3.1,1.8-7.4,2.3-9.5c0.5-2.1,1.2-5.2,1.6-6.8c0.8-3.4,2.3-9.6,3.8-15.6
		c0.6-2.3,1.4-5.9,2-8c0.5-2.1,1.4-5.7,1.9-7.9c0.5-2.2,1-4.1,1-4.1c0,0-0.5-0.6-1.2-1.3c-1.6-1.6-2.6-2.9-3.6-4.9
		c-2.4-4.7-3.1-10.4-1.9-15.7c0.4-1.9,1-3.4,1.8-5.1c1.5-3,4-5.8,6.7-7.6c0.8-0.5,3-1.8,3.5-2c1-0.4,2.6-0.7,4.7-0.9
		c3.2-0.2,5-0.2,49.7-0.3l44.7,0l0.9,0.6c1.6,1.1,2.6,2.2,3.3,3.7c0.5,1,0.5,1.3,0.5,3c0,1.7-0.1,2.3-0.6,3.3
		c-0.5,1-0.9,1.5-1.6,2.2c-0.5,0.5-0.8,0.7-1.3,1c-0.7,0.4-1.5,0.6-2.2,0.7c-1.3,0.1-9.6,0.2-40.1,0.3c-18.6,0-35.7,0.1-38,0.1
		c-13.9,0.2-14.1,0.2-14.7,0.4c-1.3,0.5-2.5,1.7-3.2,3.2c-0.9,1.8-0.9,3.6,0,5.6c1.1,2.5,2.2,3.1,6.1,3.5c0.7,0.1,1.4,0.1,3.8,0.3
		c1.2,0.1,3.6,0.2,7.1,0.3c2,0.1,3.9,0.2,4.2,0.2c0.3,0,1.9,0.1,3.5,0.2s3.3,0.1,3.8,0.2c0.4,0,2.9,0.1,5.5,0.2
		c7.2,0.3,15.7,0.6,17.5,0.7c0.9,0,2.7,0.1,4.1,0.2c5,0.2,9.3,0.4,10.6,0.5c0.7,0,3.1,0.2,5.3,0.3c2.2,0.1,4.6,0.2,5.5,0.3
		c1.8,0.1,2.7,0.1,5.1,0.2c6.4,0.3,8.8,0.6,10.9,1.4c2.7,1.1,5.1,2.7,7.2,4.8c2.4,2.5,4.4,5.5,5.3,8.2c0.4,1.2,1.2,4.4,1.9,7.3
		c0.7,3.2,2.7,11.9,3.7,16.4c0.3,1.4,1,4.3,1.4,6.5s1,4.7,1.3,5.7c0.2,1,0.8,3.8,1.4,6.2c0.5,2.4,1.2,5.4,1.4,6.6s0.8,3.8,1.3,5.8
		c1.5,6.5,1.6,7.2,1.6,9.5c0,1.7-0.1,1.9-0.6,3c-0.5,0.9-1.2,1.9-1.9,2.4c-0.9,0.8-1.7,1.1-3,1.3c-2,0.3-3.9-0.1-5.3-1.3
		c-0.8-0.7-1.4-1.4-2-2.6c-0.6-1.2-0.8-1.9-1.5-5.1c-0.6-2.8-1.3-6.1-2-9.1c-0.3-1.4-0.9-3.9-1.2-5.6c-0.3-1.6-1-4.5-1.4-6.3
		c-0.4-1.9-0.9-4.2-1.1-5.2c-0.2-1-0.7-3.1-1-4.7c-1-4.6-1.6-7.4-2-9.1c-0.6-2.9-2-9.3-2.5-11.3c-1.1-4.7-1.7-6.4-2.8-7.6
		c-0.5-0.5-1.1-0.9-2.6-1.7l-1.1-0.6l-4.5-0.2c-2.5-0.1-4.8-0.2-5.2-0.2c-0.4,0-2-0.1-3.5-0.2c-5.3-0.2-11.9-0.5-13.5-0.6
		c-0.9,0-3.5-0.2-5.8-0.3c-2.3-0.1-4.9-0.2-5.7-0.3c-2.4-0.1-5.9-0.3-10.5-0.5c-4.1-0.2-4.9-0.2-6.9-0.3c-0.4,0-2.8-0.1-5.2-0.2
		c-2.4-0.1-5.2-0.2-6.2-0.3c-2.8-0.1-7-0.3-10.1-0.4c-1.6-0.1-3.3-0.1-3.7-0.2l-0.7,0l-0.1,0.5c-0.1,0.3-0.5,2.2-1,4.3
		c-2,8.2-3.6,14.9-5.8,24c-2.1,8.5-2.7,10.9-3.3,13.5c-0.3,1.5-0.9,3.7-1.2,5c-0.3,1.3-0.9,3.7-1.3,5.4c-1.4,6.3-3.7,15.6-4.8,19.8
		c-1.4,5.6-1.8,6.8-2.5,8.2c-2.5,5-6.8,9-11.9,10.9c-2.3,0.9-3.3,1-9.7,1.1C14,26960.9,8.6,26961,7.2,26960.9z"/>
	<path d="M69.3,26821c-0.8-0.1-1.3-0.2-2-0.6c-2.2-1-3.9-2.8-5-4.8c-1.6-3.2-1.5-7.2,0.2-10.5c0.5-0.9,1.1-1.7,1.9-2.5
		c2.5-2.5,5.5-3.2,8.8-2.3c0.8,0.2,2,0.8,2.8,1.3c1.9,1.3,3.7,4,4.2,6.7c0.7,3.4-0.4,7.5-2.8,10c-1.4,1.4-2.8,2.2-4.5,2.5
		C72.1,26821,70,26821.1,69.3,26821z"/>
	<path d="M135.7,26821c-1.6-0.2-2.6-0.5-3.7-1c-1.3-0.7-2.9-2.2-4-4c-0.6-1-0.9-1.5-1.1-2.5c-0.1-0.7-0.2-1-0.2-2.6
		c0-2.4,0.2-3.5,0.9-5c1.2-2.5,3.7-4.9,5.9-5.6c0.4-0.1,0.8-0.2,2.1-0.2c2.4-0.1,3.2,0,4.3,0.6c1.5,0.7,3.2,2.1,4.1,3.6
		c0.6,0.9,1.3,2.2,1.4,3c0.3,1.4,0.4,4.6,0.1,6c-0.4,1.7-1.4,3.6-2.8,5c-1.4,1.4-2.9,2.3-4.6,2.6
		C137.8,26821,136.2,26821.1,135.7,26821z"/>
</g>
</svg>
