<svg id="svg" fill="#ef4444" stroke="#ef4444" width="200px" height="200px" version="1.1" viewBox="144 144 512 512" xmlns="http://www.w3.org/2000/svg">
    <g id="IconSvg_bgCarrier" stroke-width="0"></g>
    <g id="IconSvg_tracerCarrier" stroke-linecap="round" stroke-linejoin="round" stroke="#CCCCCC"></g>
     <g id="IconSvg_iconCarrier">
      <g xmlns="http://www.w3.org/2000/svg">
  <path d="m595.93 357.45h-221.68c6.7188-11.195 10.078-24.07 10.078-38.066 0-42.543-34.707-77.25-77.25-77.25s-77.25 34.707-77.25 77.25c0 13.996 3.3594 26.871 10.078 38.066h-35.832c-15.676 0-27.988 12.316-27.988 27.988v206.56c0 15.676 12.316 27.988 27.988 27.988h391.85c15.676 0 27.988-12.316 27.988-27.988v-206.56c0-15.676-12.316-27.992-27.988-27.992zm-354.91-38.062c0-36.387 29.668-66.055 66.055-66.055s66.055 29.668 66.055 66.055c0 13.996-4.4766 27.43-12.316 38.066-2.8008 3.918-6.1562 7.8359-10.078 11.195-5.0391 4.4766-10.637 8.3984-17.352 11.195-8.3984 3.918-17.352 5.5977-26.871 5.5977-9.5156 0-18.473-2.2383-26.871-5.5977-6.1562-2.8008-12.316-6.7188-17.352-11.195-3.918-3.3594-7.2773-7.2773-10.078-11.195-6.7148-10.637-11.191-24.074-11.191-38.066zm40.863 73.332c7.8359 2.8008 16.234 3.918 25.191 3.918 10.078 0 20.152-2.2383 29.109-5.5977h181.37c2.8008 38.625 33.586 69.973 72.773 72.773v49.82c-38.625 2.8008-69.973 33.586-72.773 72.773l-235.11-0.003906c-2.8008-38.625-33.586-69.973-72.773-72.773v-49.82c38.066-2.7969 68.855-33.027 72.215-71.09zm330.84 199.29c0 9.5156-7.2773 16.793-16.793 16.793h-391.85c-9.5156 0-16.793-7.2773-16.793-16.793l-0.003906-206.56c0-9.5156 7.2773-16.793 16.793-16.793h43.105c6.7188 7.8359 14.555 14.555 24.07 19.031-1.1211 35.828-30.789 64.934-67.176 64.934-3.3594 0-5.5977 2.2383-5.5977 5.5977v60.457c0 3.3594 2.2383 5.5977 5.5977 5.5977 36.945 0 67.176 30.23 67.176 67.176 0 3.3594 2.2383 5.5977 5.5977 5.5977h246.31c3.3594 0 5.5977-2.2383 5.5977-5.5977 0-36.945 30.23-67.176 67.176-67.176 3.3594 0 5.5977-2.2383 5.5977-5.5977v-60.457c0-3.3594-2.2383-5.5977-5.5977-5.5977-36.945 0-67.176-30.23-67.176-67.176 0-3.3594-2.2383-5.5977-5.5977-5.5977l-167.94 0.003906c3.918-3.3594 7.8359-7.2773 11.195-11.195l229.52-0.003906c9.5156 0 16.793 7.2773 16.793 16.793z"></path>
  <path d="m400 402.8c-47.582 0-85.648 38.625-85.648 85.648 0 47.582 38.625 85.648 85.648 85.648s85.648-38.625 85.648-85.648c-0.003907-47.582-38.066-85.648-85.648-85.648zm0 160.1c-40.863 0-74.453-33.586-74.453-74.453 0-40.863 33.586-74.453 74.453-74.453 40.863 0 74.453 33.586 74.453 74.453-0.003906 40.863-33.59 74.453-74.453 74.453z"></path>
  <path d="m419.59 502.44v3.3594c0 8.957-6.1562 16.793-14.555 19.031v8.957c0 3.3594-2.2383 5.5977-5.5977 5.5977s-5.5977-2.2383-5.5977-5.5977v-8.3984h-8.3984c-3.3594 0-5.5977-2.2383-5.5977-5.5977s2.2383-5.5977 5.5977-5.5977h14.559c4.4766 0 8.3984-3.918 8.3984-8.3984v-3.3594c0-4.4766-3.918-8.3984-8.3984-8.3984-11.195 0-20.152-8.957-20.152-19.594v-3.3594c0-8.957 6.1562-16.234 13.996-18.473v-8.957c0-3.3594 2.2383-5.5977 5.5977-5.5977s5.5977 2.2383 5.5977 5.5977v8.3984h8.957c3.3594 0 5.5977 2.2383 5.5977 5.5977 0 2.8008-2.2383 5.5977-5.5977 5.5977l-13.996 0.003906c-4.4766 0-8.3984 3.918-8.3984 8.3984v3.3594c0 4.4766 3.918 8.3984 8.3984 8.3984 11.195-0.5625 19.59 8.3945 19.59 19.031z"></path>
  <path d="m511.96 244.94c10.637 0 19.031 8.3984 19.031 18.473v3.3594c0 8.3984-5.5977 15.676-13.434 17.914v7.8359c0 3.3594-2.2383 5.5977-5.5977 5.5977s-5.5977-2.2383-5.5977-5.5977v-7.2773h-7.2773c-2.8008 0-5.5977-2.2383-5.5977-5.5977 0-2.8008 2.8008-5.5977 5.5977-5.5977h13.434c3.918 0 7.2773-3.3594 7.2773-7.2773v-3.3594c0-3.918-3.3594-7.2773-7.2773-7.2773-10.637 0-19.031-8.3984-19.031-18.473v-3.3594c0-8.3984 5.5977-15.113 12.875-17.914v-8.3984c0-2.8008 2.2383-5.5977 5.5977-5.5977s5.5977 2.8008 5.5977 5.5977v7.2773h7.8359c2.8008 0 5.5977 2.2383 5.5977 5.5977s-2.8008 5.5977-5.5977 5.5977l-13.434 0.003906c-3.918 0-7.2773 3.3594-7.2773 7.2773v3.918c0 3.918 3.3594 7.2773 7.2773 7.2773z"></path>
  <path d="m511.96 173.29c-42.543 0-77.25 34.707-77.25 77.25 0 42.543 34.707 77.25 77.25 77.25s77.25-34.707 77.25-77.25c0.55859-42.543-34.148-77.25-77.25-77.25zm0 143.86c-36.387 0-66.055-29.668-66.055-66.055s29.668-66.055 66.055-66.055 66.055 29.668 66.055 66.055c0.55859 35.828-29.109 66.055-66.055 66.055z"></path>
  <path d="m306.52 313.79c10.637 0 19.031 8.3984 19.031 18.473v3.3594c0 8.3984-5.5977 15.676-13.434 17.914v7.8359c0 3.3594-2.2383 5.5977-5.5977 5.5977s-5.5977-2.2383-5.5977-5.5977v-7.2773h-7.2773c-2.8008 0-5.5977-2.2383-5.5977-5.5977 0-2.8008 2.8008-5.5977 5.5977-5.5977h13.434c3.918 0 7.2773-3.3594 7.2773-7.2773v-3.3594c0-3.918-3.3594-7.2773-7.2773-7.2773-10.637 0-19.031-8.3984-19.031-18.473v-3.3594c0-8.3984 5.5977-15.113 12.875-17.914v-8.3984c0-2.8008 2.2383-5.5977 5.5977-5.5977s5.5977 2.8008 5.5977 5.5977v7.2773h7.8359c2.8008 0 5.5977 2.2383 5.5977 5.5977s-2.8008 5.5977-5.5977 5.5977h-13.434c-3.918 0-7.2773 3.3594-7.2773 7.2773v3.3594c0 4.4805 3.3555 7.8398 7.2773 7.8398z"></path>
 </g>

      </g>
      </svg>