<svg id="svg" fill="#ef4444" stroke="#ef4444" width="200px" height="200px" version="1.1" viewBox="144 144 512 512" xmlns="http://www.w3.org/2000/svg">
    <g id="IconSvg_bgCarrier" stroke-width="0"></g>
    <g id="IconSvg_tracerCarrier" stroke-linecap="round" stroke-linejoin="round" stroke="#CCCCCC"></g>
     <g id="IconSvg_iconCarrier">
      <path xmlns="http://www.w3.org/2000/svg" d="m209.02 228.7c-14.344 0-25.664 12.273-25.664 27.078v200.42c0 14.809 11.32 27.238 25.664 27.238h208.29c1.3477 0.019532 2.6484-0.50391 3.6094-1.4492 0.96094-0.94922 1.5-2.2383 1.5-3.5898 0-1.3477-0.53906-2.6406-1.5-3.5859-0.96094-0.94922-2.2617-1.4688-3.6094-1.4492h-208.29c-8.5312 0-15.586-7.3906-15.586-17.164v-116.03h308.27c1.3516 0.019531 2.6484-0.50391 3.6094-1.4492 0.96094-0.94922 1.5039-2.2422 1.5039-3.5898 0-1.3477-0.54297-2.6406-1.5039-3.5859-0.96094-0.94922-2.2578-1.4727-3.6094-1.4531h-308.27v-40.617h351.88v40.934c-0.019531 1.3477 0.50391 2.6484 1.4492 3.6094 0.94922 0.96094 2.2383 1.5 3.5898 1.5 1.3477 0 2.6406-0.53906 3.5859-1.5 0.94922-0.96094 1.4688-2.2617 1.4492-3.6094v-74.629c0-14.805-11.477-27.078-25.82-27.078zm0 10.078h320.55c8.5352 0 15.746 7.2305 15.746 17v23.617h-351.88v-23.617c0-9.7695 7.0547-17 15.586-17zm323.86 116.19c-36.707 0-66.441 29.586-66.441 66.285v28.969h-12.281c-0.15625-0.007812-0.3125-0.007812-0.46875 0-2.5977 0.24219-4.5781 2.4297-4.5664 5.0391v110.99c0 2.7852 2.2539 5.0391 5.0352 5.0391h157.44c2.7852 0 5.0391-2.2539 5.0391-5.0391v-110.99c0-2.7852-2.2539-5.0391-5.0391-5.0391h-12.281v-28.969c0-36.699-29.734-66.285-66.438-66.285zm0 10.078c31.297 0 56.363 24.918 56.363 56.207v28.969h-112.73v-28.969c0-31.289 25.062-56.207 56.363-56.207zm-283.71 28.023c-1.3359 0.14844-2.5625 0.81641-3.4023 1.8672-0.84375 1.0469-1.2344 2.3867-1.0859 3.7227 0.14453 1.3359 0.81641 2.5586 1.8633 3.4023 1.0508 0.83984 2.3906 1.2305 3.7266 1.0859h36.211c1.3477 0.019531 2.6484-0.50391 3.6094-1.4531 0.96094-0.94531 1.5-2.2383 1.5-3.5859s-0.53906-2.6406-1.5-3.5898c-0.96094-0.94531-2.2617-1.4688-3.6094-1.4492h-36.211c-0.36719-0.039062-0.73828-0.039062-1.1016 0zm68.801 0c-1.3359 0.14844-2.5625 0.81641-3.4023 1.8672-0.84375 1.0469-1.2344 2.3867-1.0859 3.7227 0.14453 1.3359 0.81641 2.5586 1.8633 3.4023 1.0508 0.83984 2.3906 1.2305 3.7266 1.0859h66.91c1.3516 0.019531 2.6484-0.50391 3.6094-1.4531 0.96094-0.94531 1.5039-2.2383 1.5039-3.5859s-0.54297-2.6406-1.5039-3.5898c-0.96094-0.94531-2.2578-1.4688-3.6094-1.4492h-66.91c-0.36719-0.039062-0.73438-0.039062-1.1016 0zm141.22 67.227h147.36v100.92h-147.36zm73.684 26.609c-13.102 0-23.777 10.832-23.773 23.93 0.003906 13.094 10.676 23.77 23.773 23.773 13.098 0 23.77-10.676 23.773-23.773 0.003906-13.102-10.668-23.93-23.773-23.93zm0 10.074c7.6602 0 13.699 6.1992 13.695 13.855 0 7.6523-6.0391 13.699-13.695 13.699-7.6523-0.003906-13.695-6.0508-13.699-13.699 0-7.6523 6.043-13.852 13.699-13.855z"></path>

      </g>
      </svg>